<?xml version="1.0" encoding="UTF-8"?>
<svg version="1.1" xmlns="http://www.w3.org/2000/svg" width="512" height="512">
<path d="M0 0 C3.55100923 3.10243811 6.96114795 6.33703147 10.35400391 9.61083984 C11.07072266 10.27599609 11.78744141 10.94115234 12.52587891 11.62646484 C41.0902969 38.81979078 60.44083837 84.25406905 62.55712891 123.36474609 C62.82862898 145.42412698 56.29723074 164.1594098 41.16650391 180.36083984 C27.02580838 193.76118482 10.74632558 199.4072282 -8.54052734 199.09912109 C-18.35981772 198.59610004 -27.62046218 195.33267262 -36.94677734 192.43115234 C-69.88403199 182.42127756 -103.66363709 186.1600706 -135.88037109 196.66552734 C-149.56559273 200.72470325 -165.5375858 200.22609987 -178.64599609 194.61083984 C-179.52255859 194.24861328 -180.39912109 193.88638672 -181.30224609 193.51318359 C-187.86800995 190.52413986 -193.23795963 186.34058021 -198.64599609 181.61083984 C-199.26216797 181.09005859 -199.87833984 180.56927734 -200.51318359 180.03271484 C-214.34709518 167.4100674 -221.13441976 148.38211019 -222.03149414 130.05908203 C-223.12074911 86.63207178 -199.76810193 41.83034104 -170.97021484 10.72021484 C-124.99502186 -36.91833534 -51.17903504 -43.19322299 0 0 Z " fill="#89C8FE" transform="translate(335.64599609375,261.38916015625)"/>
<path d="M0 0 C3.55100923 3.10243811 6.96114795 6.33703147 10.35400391 9.61083984 C11.07072266 10.27599609 11.78744141 10.94115234 12.52587891 11.62646484 C41.0902969 38.81979078 60.44083837 84.25406905 62.55712891 123.36474609 C62.82862898 145.42412698 56.29723074 164.1594098 41.16650391 180.36083984 C27.02580838 193.76118482 10.74632558 199.4072282 -8.54052734 199.09912109 C-18.35981772 198.59610004 -27.62046218 195.33267262 -36.94677734 192.43115234 C-69.88403199 182.42127756 -103.66363709 186.1600706 -135.88037109 196.66552734 C-149.56559273 200.72470325 -165.5375858 200.22609987 -178.64599609 194.61083984 C-179.52255859 194.24861328 -180.39912109 193.88638672 -181.30224609 193.51318359 C-187.86800995 190.52413986 -193.23795963 186.34058021 -198.64599609 181.61083984 C-199.26216797 181.09005859 -199.87833984 180.56927734 -200.51318359 180.03271484 C-214.34709518 167.4100674 -221.13441976 148.38211019 -222.03149414 130.05908203 C-223.12074911 86.63207178 -199.76810193 41.83034104 -170.97021484 10.72021484 C-124.99502186 -36.91833534 -51.17903504 -43.19322299 0 0 Z M-150.64599609 36.61083984 C-172.82200945 61.49159505 -190.83866465 98.37486835 -189.09521484 132.30615234 C-188.15788006 143.17168046 -183.37914619 151.22356535 -175.50927734 158.61865234 C-168.71047364 164.29025474 -162.26530493 166.99970987 -153.33154297 166.88500977 C-147.76022386 166.31622873 -142.47551602 164.44829588 -137.14599609 162.79833984 C-101.06812274 152.07710712 -60.8746719 150.17615511 -24.81787109 162.20458984 C-13.85787861 165.8600678 -4.15795331 169.05627878 7.16650391 164.70849609 C16.42975064 160.06033121 23.57464368 152.21992615 27.79150391 142.79833984 C32.64571845 127.64474836 29.00168403 111.31334342 24.35400391 96.61083984 C24.10763184 95.82354492 23.86125977 95.03625 23.60742188 94.22509766 C12.95793576 61.0887856 -7.44812737 29.87875329 -38.73486328 13.21044922 C-78.56389618 -7.07656898 -120.96915071 5.28165044 -150.64599609 36.61083984 Z " fill="#428DFE" transform="translate(335.64599609375,261.38916015625)"/>
<path d="M0 0 C18.85631638 13.61190338 29.46036647 34.69050881 33.1640625 57.38037109 C37.00457653 85.09570853 32.83559117 114.33204085 16 137.30078125 C6.93398685 149.00867946 -5.56246851 158.46533271 -20.5 160.8046875 C-38.09172132 161.92249479 -51.99865932 158.23172446 -65.625 146.6171875 C-83.42671691 129.90196035 -91.88834146 105.21875627 -92.68359375 81.203125 C-93.19315832 55.83700093 -87.45604497 28.78963708 -69.5 9.8046875 C-50.70461117 -9.73475287 -23.29184718 -15.00532463 0 0 Z " fill="#428DFE" transform="translate(361.5,60.1953125)"/>
<path d="M0 0 C19.46937416 12.48036805 29.74278953 32.35215314 34.875 54.3125 C40.60616365 81.23702922 36.30095905 110.7533275 21.875 134.3125 C19.13121893 138.26003582 16.18022983 141.82491267 12.875 145.3125 C12.18921875 146.03953125 11.5034375 146.7665625 10.796875 147.515625 C-0.05327307 158.0442872 -13.69612991 162.75233374 -28.54541016 162.67602539 C-43.6120282 162.30906403 -56.78879269 155.08109845 -67.125 144.3125 C-84.93386211 124.08087749 -91.17944304 97.35670355 -90.01855469 70.88525391 C-88.46212573 46.55977551 -80.10928909 23.70902538 -62.4375 6.5 C-44.57366177 -8.85173598 -20.47669514 -11.36187567 0 0 Z " fill="#428DFE" transform="translate(206.125,58.6875)"/>
<path d="M0 0 C13.2278282 10.01595937 20.81551288 23.27699844 23.6875 39.6875 C24.62909863 54.05304822 24.47717027 68.02516184 19.6875 81.6875 C19.32527344 82.74710937 18.96304688 83.80671875 18.58984375 84.8984375 C11.8922779 102.56184846 -0.71398206 116.98400524 -17.640625 125.328125 C-29.28948355 130.32049295 -42.90809482 132.06543143 -55.08984375 127.65234375 C-67.93036268 122.07833993 -78.69210048 113.04166563 -84.07470703 99.81445312 C-92.51591825 77.20823375 -91.48105067 53.33243618 -81.65869141 31.34204102 C-73.73017479 14.77347425 -60.45499248 1.57080261 -43.3125 -5.3125 C-28.56031768 -9.71703705 -12.96898436 -8.63302707 0 0 Z " fill="#428DFE" transform="translate(473.3125,187.3125)"/>
<path d="M0 0 C18.68063775 12.82429848 30.60406338 31.78475355 34.90087891 54.02294922 C38.01922608 75.1559473 34.87833191 94.99507835 22.3515625 112.5625 C16.0066293 120.29907282 5.72792893 127.85679299 -4.38671875 129.6328125 C-23.53680362 131.12840487 -38.22289477 126.79016844 -53.05078125 114.2578125 C-67.12893868 101.20162501 -76.59871707 81.98462499 -77.89233398 62.77001953 C-77.99068957 59.48999829 -78.00959477 56.21891143 -78 52.9375 C-78.01611328 51.84308594 -78.03222656 50.74867188 -78.04882812 49.62109375 C-78.05857918 33.14181783 -72.64737531 17.91364284 -61.0625 5.99609375 C-43.81073044 -9.86531938 -20.17593841 -12.11683452 0 0 Z " fill="#428DFE" transform="translate(92.6875,187.1875)"/>
<path d="M0 0 C10.45380463 3.49003774 15.71623055 10.22947807 20.75 19.6875 C26.15557176 30.91753093 27.25832572 40.80765326 27.375 53.125 C27.38909912 54.22166992 27.40319824 55.31833984 27.41772461 56.44824219 C27.37442487 63.73794477 26.28723938 70.08644054 24 77 C23.71020264 77.87769043 23.42040527 78.75538086 23.12182617 79.65966797 C19.48448473 90.17778412 12.95563102 98.85527549 3 104 C-1.93513119 105.64504373 -6.18105436 105.62541961 -10.9375 103.5 C-22.96766228 96.76496707 -28.81378998 84.28111084 -32.4921875 71.4765625 C-36.7755446 50.58695942 -34.51830784 30.13628296 -23 12 C-20.44899283 8.47816419 -18.04146452 6.0798604 -14.375 3.75 C-13.59898437 3.24984375 -12.82296875 2.7496875 -12.0234375 2.234375 C-8.00273316 -0.21840989 -4.65173933 -0.6656399 0 0 Z " fill="#89C8FE" transform="translate(183,84)"/>
<path d="M0 0 C11.30263336 5.16449914 17.49173473 16.16540779 21.8984375 27.265625 C26.87210795 41.68926931 27.01125218 60.9497439 21.8984375 75.265625 C21.53492188 76.29171875 21.17140625 77.3178125 20.796875 78.375 C16.69532434 89.01257009 10.37139208 98.4496482 -0.0390625 103.765625 C-6.37812881 104.8005746 -11.27550137 104.10965182 -16.7890625 100.703125 C-27.82478578 92.6230563 -33.79735764 78.44515742 -36.1015625 65.265625 C-37.32529584 44.39540913 -36.42490906 24.65084679 -22.7265625 7.703125 C-16.51410355 1.24049991 -9.00022875 -3.14506135 0 0 Z " fill="#89C8FE" transform="translate(338.1015625,84.734375)"/>
<path d="M0 0 C5.69037164 3.87429558 9.56885814 9.58475347 11.4609375 16.20703125 C13.90966136 30.55815881 11.73236267 44.27286918 3.5625 56.5 C-1.36612829 62.91148399 -6.03138252 68.72451671 -14.0625 71 C-19.05180127 71.57513559 -23.38135799 71.84057101 -27.9375 69.5625 C-35.89464649 59.96711747 -38.08121533 49.39195482 -37.30078125 37.11962891 C-35.88838579 24.55567668 -29.63315035 12.47638989 -19.9375 4.4375 C-13.6150794 -0.42046215 -7.88301106 -2.57404443 0 0 Z " fill="#89C8FE" transform="translate(453.0625,213)"/>
<path d="M0 0 C10.32345542 4.32469078 16.71595882 11.4956052 21.26953125 21.6796875 C26.19122556 34.30305332 28.39148954 47.14403233 22.88671875 60.0078125 C20.39764139 64.98596722 18.20394511 69.19250506 12.75 71.28125 C6.21756007 72.20565188 1.04164417 71.83546832 -4.34765625 67.87890625 C-4.97542969 67.35167969 -5.60320312 66.82445312 -6.25 66.28125 C-7.26900391 65.44400391 -7.26900391 65.44400391 -8.30859375 64.58984375 C-17.55404063 56.21825763 -22.5879822 43.92426012 -23.53125 31.609375 C-23.77656187 21.42893249 -22.83476567 12.4153723 -16.25 4.28125 C-11.02770033 -0.31934733 -7.04244844 -2.24967103 0 0 Z " fill="#89C8FE" transform="translate(70.25,212.71875)"/>
</svg>
